<?xml version="1.0" standalone="no"?>
<!DOCTYPE svg PUBLIC "-//W3C//DTD SVG 20010904//EN"
 "http://www.w3.org/TR/2001/REC-SVG-20010904/DTD/svg10.dtd">
<svg version="1.0" xmlns="http://www.w3.org/2000/svg"
 width="168.000000pt" height="169.000000pt" viewBox="0 0 168.000000 169.000000"
 preserveAspectRatio="xMidYMid meet">

<g transform="translate(0.000000,169.000000) scale(0.100000,-0.100000)"
fill="#000000" stroke="none">
<path d="M646 1375 c-187 -52 -341 -207 -391 -395 -19 -71 -19 -200 0 -275 52
-203 223 -367 423 -406 83 -16 221 -6 297 20 81 29 187 103 241 168 84 105
124 219 124 361 0 246 -169 463 -410 527 -68 18 -218 18 -284 0z m279 -30 c82
-22 149 -60 221 -127 61 -57 130 -167 121 -191 -3 -7 -6 -5 -6 5 -1 9 -6 20
-11 23 -6 4 -9 3 -8 -2 1 -4 -2 -19 -6 -31 -8 -23 -8 -23 -21 -5 -7 11 -15 35
-17 53 -2 24 -10 38 -25 46 -13 6 -20 14 -16 17 3 4 1 7 -5 7 -11 0 -14 -9
-10 -27 0 -5 9 -7 20 -5 25 4 36 -27 15 -43 -21 -15 -22 -35 -2 -35 8 0 15 -6
15 -12 0 -22 -17 -41 -29 -34 -19 12 -32 -3 -21 -24 13 -23 -14 -50 -32 -32
-18 18 -38 14 -38 -8 0 -13 -7 -20 -20 -20 -13 0 -20 7 -20 19 0 26 -24 33
-37 12 -9 -14 -7 -20 9 -30 18 -11 18 -14 4 -36 -23 -35 -11 -58 27 -49 32 7
47 -6 47 -42 0 -15 -8 -24 -25 -28 -35 -9 -33 -41 4 -54 28 -10 29 -12 18 -42
-10 -26 -15 -30 -38 -25 -38 9 -55 -16 -34 -48 15 -23 14 -25 -9 -41 -32 -21
-39 -20 -53 3 -18 29 -53 16 -53 -20 0 -26 -3 -29 -35 -29 -32 0 -35 3 -35 29
0 37 -33 48 -53 18 -13 -20 -17 -21 -41 -8 -27 15 -34 39 -15 58 7 7 9 19 5
28 -4 13 -13 15 -35 10 -23 -5 -32 -2 -40 14 -17 32 -13 50 14 57 34 8 33 41
-1 54 -14 6 -24 16 -21 23 17 45 18 57 4 57 -22 0 -28 -12 -15 -28 10 -11 8
-17 -7 -28 -17 -13 -21 -13 -30 0 -13 16 -28 10 -38 -16 -9 -24 -37 -23 -37 1
0 24 -27 35 -38 15 -7 -12 -11 -12 -27 0 -16 11 -17 17 -7 29 15 18 0 32 -23
23 -23 -8 -30 33 -8 49 17 13 17 14 -1 28 -25 18 -14 52 14 44 27 -7 36 11 16
31 -16 16 -17 16 -11 0 5 -13 1 -17 -17 -16 -29 2 -58 26 -58 48 0 10 -9 20
-21 23 -20 5 -20 7 12 67 58 110 187 209 316 245 66 18 197 18 268 0z m190
-495 c-1 -16 -5 -33 -10 -37 -4 -5 -4 -2 0 6 6 11 4 13 -7 8 -20 -7 -55 28
-38 38 6 3 9 2 8 -3 -3 -11 2 -12 30 -11 10 0 12 3 4 6 -6 2 -10 9 -6 14 11
18 20 8 19 -21z m-472 -127 c4 -3 3 -11 -4 -19 -8 -10 -15 -11 -24 -4 -18 15
-47 -42 -33 -61 7 -11 8 -10 4 4 -3 10 0 20 9 23 7 3 11 13 9 22 -4 13 -3 13
6 -2 10 -15 9 -20 -1 -27 -11 -7 -10 -9 5 -9 16 0 18 -6 13 -42 -3 -23 -3 -37
1 -31 4 6 18 10 32 9 29 -1 34 -27 13 -63 -20 -34 -16 -43 18 -43 20 0 28 4
23 12 -5 8 -2 9 10 5 38 -15 69 -20 63 -10 -3 5 0 10 8 10 10 0 13 -8 9 -26
-4 -20 -3 -23 5 -11 9 12 13 12 19 2 5 -7 29 -13 54 -14 26 -1 44 -6 42 -10
-3 -4 4 -8 15 -8 11 0 23 -5 27 -12 5 -7 2 -9 -7 -4 -8 4 -3 -2 11 -13 27 -23
45 -28 34 -9 -4 7 -3 8 4 4 22 -14 12 -25 -45 -47 -84 -33 -262 -33 -345 -1
-54 22 -56 24 -40 41 13 13 21 15 31 7 11 -8 13 -8 8 0 -3 6 5 21 18 32 25 22
33 42 16 42 -5 0 -9 13 -9 30 1 16 4 27 8 25 4 -3 13 1 19 9 8 10 8 16 -3 25
-10 8 -16 9 -21 1 -9 -15 -42 5 -50 31 -4 12 -12 18 -21 15 -10 -4 -14 2 -14
19 0 14 -6 25 -13 25 -7 0 -18 9 -25 21 -8 12 -9 18 -4 15 5 -3 17 3 27 14 10
11 22 17 26 14 5 -3 9 -1 9 4 0 10 49 13 63 5z m-53 -143 c0 -5 -5 -10 -11
-10 -5 0 -7 5 -4 10 3 6 8 10 11 10 2 0 4 -4 4 -10z m74 -41 c-3 -5 -10 -7
-15 -3 -5 3 -7 10 -3 15 3 5 10 7 15 3 5 -3 7 -10 3 -15z m31 -39 c3 -5 1 -10
-4 -10 -6 0 -11 5 -11 10 0 6 2 10 4 10 3 0 8 -4 11 -10z"/>
<path d="M991 1094 c-12 -15 -21 -40 -21 -55 0 -30 30 -69 53 -68 6 0 2 7 -10
16 -17 11 -23 25 -23 52 0 41 6 53 35 69 17 9 17 11 3 12 -9 0 -26 -12 -37
-26z"/>
<path d="M1070 1116 c0 -2 7 -7 16 -10 8 -3 12 -2 9 4 -6 10 -25 14 -25 6z"/>
<path d="M1119 1038 c-3 -22 -1 -34 4 -29 5 5 7 21 5 37 -3 27 -4 26 -9 -8z"/>
<path d="M1221 1034 c0 -11 3 -14 6 -6 3 7 2 16 -1 19 -3 4 -6 -2 -5 -13z"/>
<path d="M485 1000 c-3 -5 1 -10 9 -10 9 0 16 5 16 10 0 6 -4 10 -9 10 -6 0
-13 -4 -16 -10z"/>
<path d="M550 999 c0 -11 27 -12 34 -1 2 4 -4 9 -15 9 -10 1 -19 -2 -19 -8z"/>
<path d="M622 980 c-16 -26 -8 -40 18 -33 26 7 40 -26 17 -39 -22 -12 -22 -38
-1 -38 12 0 15 -6 10 -24 -5 -19 -1 -25 16 -29 12 -4 28 -1 35 5 10 8 10 16
-4 39 -16 27 -16 28 8 48 l24 20 23 -25 c28 -32 52 -25 52 16 0 28 3 30 35 30
32 0 35 -3 35 -29 0 -35 26 -49 49 -26 14 14 13 18 -14 43 -22 20 -40 27 -70
27 -34 0 -40 -3 -45 -25 -5 -26 -21 -33 -37 -16 -5 6 -2 6 7 1 13 -8 13 -7 0
10 -8 10 -14 20 -12 22 2 3 1 8 -3 11 -4 4 -6 3 -5 -3 4 -19 0 -36 -7 -32 -5
3 -17 1 -28 -3 -14 -5 -25 0 -38 17 -10 12 -25 23 -32 23 -7 0 -15 7 -17 15
-2 12 -6 11 -16 -5z"/>
<path d="M914 973 c3 -16 36 -53 49 -53 5 0 4 7 -3 15 -10 12 -10 18 0 30 14
17 14 17 -21 19 -16 1 -26 -3 -25 -11z"/>
<path d="M493 960 c-47 -19 -58 -92 -20 -128 51 -48 137 -13 137 55 0 58 -62
97 -117 73z m103 -77 c2 -11 -7 -30 -20 -42 -20 -19 -24 -20 -29 -7 -4 9 -12
16 -18 16 -8 0 -8 -4 1 -15 18 -22 3 -18 -20 5 -15 15 -16 20 -6 20 8 0 18 4
21 10 3 5 0 7 -7 5 -9 -4 -14 2 -14 15 0 12 7 20 18 20 9 0 20 5 23 11 10 15
47 -12 51 -38z"/>
<path d="M573 865 c0 -8 4 -12 9 -9 5 3 6 10 3 15 -9 13 -12 11 -12 -6z"/>
<path d="M793 834 c-43 -21 -78 -91 -69 -139 15 -77 93 -125 168 -105 38 11
93 64 82 81 -3 5 0 9 5 9 18 0 12 73 -9 107 -36 59 -111 79 -177 47z m137 -39
c17 -9 30 -23 30 -33 0 -10 5 -23 11 -29 7 -7 8 -20 3 -34 -4 -13 -9 -26 -9
-29 -15 -55 -94 -87 -146 -59 -11 5 -17 14 -14 19 3 6 0 7 -8 4 -10 -3 -17 4
-22 23 -12 43 -10 98 3 96 6 -2 9 4 6 11 -7 19 41 45 84 46 18 0 46 -7 62 -15z"/>
<path d="M867 629 c7 -7 15 -10 18 -7 3 3 -2 9 -12 12 -14 6 -15 5 -6 -5z"/>
</g>
</svg>
