<?xml version="1.0" standalone="no"?>
<!DOCTYPE svg PUBLIC "-//W3C//DTD SVG 20010904//EN"
 "http://www.w3.org/TR/2001/REC-SVG-20010904/DTD/svg10.dtd">
<svg version="1.0" xmlns="http://www.w3.org/2000/svg"
 width="600.000000pt" height="600.000000pt" viewBox="0 0 600.000000 600.000000"
 preserveAspectRatio="xMidYMid meet">

<g transform="translate(0.000000,600.000000) scale(0.100000,-0.100000)"
fill="#000000" stroke="none">
<path d="M2759 4645 c-294 -48 -524 -144 -754 -316 -328 -244 -547 -592 -636
-1009 -20 -89 -23 -136 -23 -315 -1 -236 14 -337 79 -533 137 -411 440 -760
830 -956 542 -272 1181 -227 1690 117 132 90 342 303 434 440 124 188 205 384
253 612 20 95 23 139 22 320 0 180 -3 225 -22 315 -103 473 -370 855 -772
1103 -148 91 -341 166 -535 207 -131 28 -437 36 -566 15z m527 -105 c217 -41
436 -133 616 -260 112 -79 275 -237 352 -343 71 -96 176 -295 171 -322 -2 -11
-4 -22 -4 -25 -1 -3 -6 2 -11 10 -8 12 -10 10 -10 -8 0 -13 -4 -20 -10 -17 -5
3 -10 2 -10 -4 0 -6 -6 -8 -14 -5 -8 3 -17 0 -22 -7 -4 -8 -3 -10 4 -5 7 4 12
2 12 -3 0 -6 -5 -11 -11 -11 -5 0 -7 -6 -3 -12 5 -9 2 -9 -9 1 -15 12 -17 11
-18 -5 0 -18 -1 -18 -9 1 -5 11 -9 16 -9 11 -1 -4 -13 -1 -27 9 -18 12 -24 13
-19 4 3 -8 -1 -5 -10 6 -9 11 -14 28 -11 38 2 9 0 15 -4 12 -5 -3 -11 -1 -15
5 -3 5 -1 10 5 10 6 0 8 5 4 12 -4 6 -3 8 4 4 6 -3 13 -2 17 4 3 5 2 10 -3 10
-5 0 -7 11 -5 24 5 24 -33 106 -48 106 -4 0 -3 -16 3 -36 13 -48 7 -59 -41
-75 -23 -8 -41 -17 -41 -21 0 -5 0 -21 0 -36 0 -25 6 -30 40 -41 50 -15 55
-23 40 -77 -17 -60 -29 -68 -81 -53 -41 13 -42 12 -65 -16 l-22 -28 24 -32
c13 -18 24 -39 24 -47 0 -8 -21 -30 -46 -48 l-47 -33 -28 34 c-16 19 -29 37
-29 41 0 4 -17 1 -37 -6 -36 -12 -38 -16 -43 -62 l-5 -49 -60 0 -60 0 -3 51
c-3 48 -5 52 -35 61 -30 9 -35 7 -67 -29 l-35 -38 -42 27 c-24 16 -45 34 -48
42 -3 8 6 31 21 52 26 37 26 38 8 69 -13 21 -23 28 -34 24 -8 -4 -35 -12 -59
-19 -30 -8 -39 -14 -28 -18 26 -10 21 -30 -5 -21 -21 6 -22 5 -8 -11 14 -17
13 -18 -3 -12 -11 4 -16 3 -12 -3 3 -6 16 -10 28 -10 17 -1 19 -2 7 -9 -23
-13 -68 -24 -52 -13 11 7 9 10 -7 15 -14 3 -19 1 -14 -6 4 -7 0 -8 -13 -3 -18
8 -40 9 -150 7 -61 -1 -82 -23 -86 -90 -1 -29 -6 -40 -15 -37 -12 5 -18 -6
-14 -28 2 -10 -91 43 -101 58 -4 5 -4 15 -1 21 4 5 -4 1 -17 -10 -13 -11 -20
-15 -17 -8 4 6 2 15 -4 19 -8 5 -9 3 -4 -6 6 -10 4 -12 -8 -7 -10 3 -17 2 -17
-3 0 -6 4 -10 8 -10 5 0 30 -31 56 -68 l47 -69 51 18 51 17 -2 77 c-3 104 7
115 106 115 110 0 113 -3 113 -108 l0 -87 50 -16 c46 -14 51 -14 65 1 8 9 13
26 10 37 -2 12 4 28 13 35 13 11 14 11 7 -2 -12 -18 -16 -46 -6 -34 4 5 19 26
35 47 15 20 34 37 42 37 23 0 154 -100 154 -117 0 -9 -17 -39 -38 -67 -21 -28
-42 -57 -46 -64 -9 -15 53 -104 68 -99 97 37 147 49 160 38 7 -6 24 -47 36
-92 27 -95 27 -96 -71 -128 l-66 -22 1 -59 1 -59 73 -21 c56 -17 73 -26 77
-43 7 -28 -37 -158 -57 -171 -11 -7 -35 -4 -80 10 -34 10 -66 19 -69 19 -4 0
-22 -21 -42 -47 l-35 -46 44 -61 c24 -33 44 -64 44 -69 0 -22 -144 -124 -164
-116 -7 3 -30 30 -51 60 -21 30 -43 54 -49 53 -6 0 -33 -8 -60 -17 l-50 -17 3
-66 c3 -91 -6 -99 -113 -99 -50 0 -87 5 -94 12 -7 7 -12 41 -12 84 l0 71 -55
21 -55 20 -46 -59 c-25 -32 -53 -59 -62 -59 -27 0 -152 97 -152 118 0 11 9 27
20 37 12 10 18 25 16 32 -3 7 -2 12 3 10 5 -1 17 9 29 23 l20 25 -31 45 c-18
25 -33 47 -34 49 -2 3 -37 -6 -78 -19 -66 -21 -77 -22 -89 -9 -23 24 -59 147
-51 177 6 26 6 26 -8 7 -8 -10 -13 -30 -11 -43 3 -15 1 -21 -6 -17 -14 8 -13
2 5 -31 8 -16 15 -45 15 -65 0 -20 3 -39 7 -43 15 -15 14 -56 -2 -56 -8 0 -14
3 -14 8 3 16 -2 23 -12 17 -7 -5 -4 -14 7 -27 15 -15 16 -21 5 -27 -8 -5 8 -8
39 -7 37 1 57 -4 71 -17 10 -10 19 -14 19 -8 0 5 8 12 17 15 10 4 14 4 11 0
-4 -3 3 -16 15 -28 15 -14 22 -31 21 -51 -3 -42 -3 -43 -20 -15 l-15 25 6 -30
c3 -16 16 -38 28 -48 12 -10 15 -16 7 -12 -12 5 -12 4 1 -7 19 -16 47 -104 29
-93 -4 3 -18 -4 -31 -14 -25 -20 -59 -13 -59 12 0 7 4 6 10 -3 5 -8 10 -10 10
-5 0 6 -4 16 -8 23 -6 9 -12 5 -21 -14 l-12 -27 -26 24 c-24 22 -26 22 -20 4
7 -18 6 -19 -6 -3 -8 10 -17 15 -20 11 -4 -3 -7 0 -7 8 0 8 5 20 11 26 7 7 0
10 -23 8 -18 -1 -38 2 -45 7 -7 6 -14 4 -19 -3 -5 -8 -3 -9 6 -4 9 6 11 4 5
-4 -5 -9 -10 -10 -18 -2 -7 7 -6 15 3 26 7 8 10 18 6 22 -3 3 -6 1 -6 -7 0
-10 -3 -10 -15 0 -9 7 -13 15 -10 18 8 8 -37 52 -47 46 -5 -3 -1 -12 9 -21 17
-13 16 -13 -4 -4 -13 7 -24 7 -27 2 -4 -5 -1 -11 6 -13 8 -3 7 -6 -3 -10 -10
-4 -15 1 -16 13 -1 10 4 19 10 19 7 0 6 4 -3 11 -12 8 -11 9 5 7 13 -2 19 2
17 11 -2 11 0 12 11 3 8 -7 18 -8 22 -4 5 4 5 2 1 -5 -3 -6 -2 -14 4 -18 5 -3
10 -2 10 3 0 6 7 12 15 16 9 3 15 0 15 -10 0 -8 -4 -13 -9 -9 -5 3 -13 0 -17
-6 -5 -8 -3 -9 6 -4 10 6 12 3 8 -13 -4 -12 -2 -20 3 -17 4 3 11 22 15 41 4
21 10 31 14 24 5 -8 9 -6 14 6 4 10 4 15 0 11 -11 -11 -33 13 -27 29 6 17 -13
19 -23 2 -4 -6 -3 -8 4 -4 13 8 10 -20 -5 -35 -7 -7 -9 -1 -8 18 1 15 -3 34
-9 42 -9 12 -8 13 4 6 10 -5 8 -1 -4 13 -10 12 -23 19 -27 16 -5 -3 -9 5 -9
18 0 28 -9 42 -32 51 -12 4 -18 17 -18 39 -1 31 -1 32 -15 14 -14 -19 -15 -19
-15 8 0 18 -4 25 -12 20 -7 -5 -9 -2 -5 9 5 13 -20 47 -30 40 -1 -2 -10 -3
-18 -3 -24 0 -19 62 8 96 l22 29 -26 -20 c-15 -11 -24 -24 -21 -30 3 -5 -2 -3
-13 5 -10 8 -20 14 -22 13 -1 -2 -3 0 -4 5 0 4 -7 11 -15 15 -18 10 -9 27 15
27 23 0 46 -26 31 -35 -5 -3 -10 1 -10 9 0 10 -8 16 -22 15 -19 -1 -19 -2 -5
-6 10 -3 16 -11 13 -18 -2 -7 1 -12 9 -11 18 3 30 14 30 29 0 7 20 19 45 27
60 20 70 28 70 50 0 11 10 22 23 26 33 11 77 10 77 -1 0 -7 3 -7 8 0 11 16 49
16 62 0 7 -8 21 -15 31 -15 24 0 35 -20 12 -21 -10 -1 -1 -6 19 -13 23 -7 34
-15 30 -22 -7 -11 -60 -29 -74 -26 -5 1 -8 -3 -8 -9 0 -11 38 -5 100 16 35 12
35 13 35 70 l0 58 -72 24 c-39 13 -74 31 -77 39 -8 22 42 171 60 178 9 3 45
-3 81 -14 36 -11 70 -20 77 -20 6 0 26 18 44 40 l33 40 -51 66 c-53 71 -58 85
-36 103 15 12 11 93 -5 99 -5 2 -9 10 -9 17 0 8 -11 26 -25 41 -14 15 -25 31
-25 37 0 5 -9 7 -20 4 -11 -3 -20 -1 -20 3 0 5 8 10 18 12 9 2 -5 7 -33 11
-46 7 -52 11 -70 49 -11 23 -26 44 -33 46 -11 3 -11 0 -1 -16 11 -17 8 -25
-20 -61 -32 -40 -32 -41 -14 -65 21 -30 27 -31 81 -12 46 16 52 13 71 -43 19
-59 15 -68 -37 -85 -48 -16 -49 -17 -43 -53 5 -32 11 -38 49 -51 47 -15 50
-25 25 -90 -18 -47 -22 -48 -98 -27 -14 3 -26 -3 -39 -21 -19 -27 -16 -41 19
-91 15 -20 15 -23 -11 -46 -15 -14 -38 -31 -51 -38 -23 -12 -27 -11 -56 24
-30 36 -34 37 -64 27 -29 -11 -32 -16 -35 -58 l-3 -47 -65 0 -65 0 -5 49 c-4
44 -8 51 -34 59 -27 9 -32 7 -60 -27 -17 -20 -35 -36 -39 -36 -16 0 -97 61
-97 73 1 7 14 27 30 46 l29 34 -21 29 c-15 23 -26 28 -42 23 -11 -3 -35 -8
-52 -12 -31 -5 -32 -4 -49 46 -9 29 -15 58 -12 65 3 7 26 18 52 25 45 11 46
12 43 49 -3 34 -6 37 -50 50 -52 14 -56 24 -37 83 20 59 31 65 84 45 25 -10
47 -17 48 -15 1 2 11 14 21 26 18 22 18 23 -14 65 -30 40 -32 38 -13 -9 4 -10
2 -14 -4 -10 -6 4 -9 -3 -8 -16 2 -16 -3 -23 -16 -24 -11 -1 -18 1 -15 5 5 8
-60 6 -91 -4 -13 -3 -23 -11 -24 -18 0 -6 -4 -1 -10 12 -5 13 -13 21 -18 18
-5 -3 -14 1 -21 9 -6 7 -19 11 -28 8 -14 -4 -15 -3 -2 5 8 6 17 9 20 7 3 -2 6
6 7 18 0 12 -1 16 -4 9 -3 -6 -9 -10 -13 -7 -5 3 -7 12 -4 20 4 8 9 13 13 10
4 -2 8 2 8 10 0 8 -4 12 -9 9 -5 -3 -7 6 -4 19 3 16 -1 27 -10 31 -15 6 -15
-15 1 -26 6 -5 5 -8 -4 -8 -10 0 -11 -3 -2 -14 9 -10 7 -17 -6 -27 -16 -13
-17 -12 -5 3 9 11 10 18 2 23 -7 4 -8 23 -5 48 6 40 5 41 -9 22 -11 -13 -14
-14 -11 -4 3 9 -2 22 -12 30 -16 13 -17 12 -5 -3 10 -12 10 -18 1 -24 -8 -4
-9 -3 -5 5 4 6 0 14 -8 17 -9 3 -13 10 -10 15 7 12 -21 51 -31 41 -4 -4 -4 4
-1 18 l7 25 -20 -25 -21 -25 16 40 c112 286 375 575 673 739 168 93 392 164
578 185 123 14 331 5 459 -19z m-662 -1196 c3 -8 2 -12 -4 -9 -6 3 -10 10 -10
16 0 14 7 11 14 -7z m-804 -14 c-6 -11 -15 -20 -21 -20 -6 0 -7 -4 -4 -10 3
-6 -1 -7 -10 -4 -13 5 -10 11 12 30 34 29 37 30 23 4z m1630 0 c0 -5 -5 -10
-11 -10 -5 0 -7 5 -4 10 3 6 8 10 11 10 2 0 4 -4 4 -10z m-32 -21 c12 -11 20
-24 17 -30 -4 -5 -2 -9 4 -9 14 0 23 18 12 22 -5 1 -3 12 6 23 15 19 15 19 8
-4 -4 -13 -3 -21 2 -18 10 6 14 -26 7 -59 -6 -33 -45 -26 -57 11 -6 17 -19 38
-29 47 -11 9 -17 22 -13 27 9 16 18 14 43 -10z m-338 -123 c0 -2 -7 -7 -16
-10 -8 -3 -12 -2 -9 4 6 10 25 14 25 6z m880 -131 c0 -8 -9 -15 -21 -15 -13 0
-18 4 -13 12 4 7 3 8 -4 4 -6 -4 -9 -13 -5 -21 4 -12 -4 -15 -36 -15 -39 0
-41 -1 -41 -31 0 -28 -3 -31 -25 -27 -14 3 -28 2 -31 -3 -6 -11 -34 0 -34 13
0 7 5 6 13 -1 18 -14 30 -2 15 16 -6 8 -7 13 -2 12 15 -4 64 20 64 31 0 5 -8
10 -17 10 -17 1 -17 1 0 11 9 6 25 8 35 5 9 -3 24 -1 32 4 24 15 70 12 70 -5z
m-29 -76 c10 -20 9 -21 -10 -16 -11 3 -21 1 -21 -4 0 -5 -5 -9 -11 -9 -5 0 -7
5 -4 10 3 6 1 10 -6 10 -8 0 -8 4 1 15 18 21 37 19 51 -6z m-1636 -558 c3 -5
2 -12 -3 -15 -5 -3 -9 1 -9 9 0 17 3 19 12 6z m118 -223 c-4 -7 -8 -17 -8 -23
0 -5 -10 -11 -22 -13 -13 -2 -23 1 -23 7 0 6 6 10 13 9 6 -2 11 3 9 10 -1 8 2
11 7 8 5 -4 12 -2 16 4 3 5 8 10 11 10 3 0 2 -6 -3 -12z m5 -142 c-16 -32 -21
-34 -14 -6 7 24 6 24 -8 6 -9 -11 -16 -15 -16 -10 0 14 18 31 35 31 11 0 12
-5 3 -21z m38 -17 c3 -38 5 -41 23 -36 19 5 23 -15 6 -30 -4 -4 -5 -2 -1 5 11
18 -5 14 -20 -5 -12 -16 -12 -16 -7 6 5 18 3 22 -7 16 -8 -5 -11 -3 -8 6 3 8
1 25 -4 37 -6 18 -5 23 4 20 7 -3 13 -11 14 -19z m-27 -41 c-12 -23 -21 -24
-12 -1 4 11 3 14 -6 9 -10 -6 -9 -3 0 13 16 25 32 6 18 -21z m121 18 c0 -3 -4
-8 -10 -11 -5 -3 -10 -1 -10 4 0 6 5 11 10 11 6 0 10 -2 10 -4z m-10 -32 c0
-8 -19 -13 -24 -6 -3 5 1 9 9 9 8 0 15 -2 15 -3z m432 -53 c-10 -6 -8 -10 8
-14 15 -4 19 -10 14 -19 -6 -10 -5 -10 7 -2 8 6 21 14 29 18 8 3 5 4 -7 2 -13
-2 -26 0 -29 6 -4 6 6 8 22 6 21 -2 28 -8 26 -20 -1 -9 3 -20 9 -24 8 -4 9 -3
5 4 -4 7 -3 12 2 12 6 0 9 7 8 16 0 9 6 19 14 22 13 4 13 3 2 -11 -11 -13 -10
-17 4 -25 12 -7 13 -11 5 -17 -9 -5 -9 -10 0 -21 9 -12 15 -12 27 -2 10 9 13
9 9 1 -8 -13 46 -29 63 -18 5 3 10 1 10 -4 0 -6 8 -11 18 -11 14 0 15 2 2 10
-17 11 -10 13 14 4 9 -3 13 -11 10 -18 -3 -6 2 -2 10 8 9 11 16 15 16 10 0 -6
7 -11 15 -11 8 0 12 4 9 9 -3 4 2 8 11 8 10 0 13 -5 9 -12 -6 -10 -4 -10 8 0
11 9 18 10 23 2 4 -7 12 -7 26 0 11 6 24 8 29 5 12 -7 30 35 22 50 -3 6 1 5 7
-1 10 -9 10 -17 1 -34 -10 -19 -9 -25 6 -39 13 -12 15 -12 7 -1 -6 8 -7 24 -3
35 9 25 50 27 68 3 7 -10 22 -18 33 -18 10 0 19 -5 19 -11 0 -5 5 -7 11 -3 7
4 7 -1 -1 -16 -7 -12 -8 -20 -2 -16 11 6 24 -18 15 -28 -4 -3 -13 0 -22 7 -14
10 -14 10 -3 -5 11 -14 10 -18 -3 -26 -9 -5 -16 -12 -16 -15 1 -4 -2 -7 -6 -7
-5 0 -8 4 -8 9 0 5 -4 13 -9 18 -5 4 -6 3 -3 -3 4 -7 0 -14 -8 -18 -8 -3 -15
0 -15 7 0 8 -3 9 -8 1 -4 -6 -17 -10 -30 -9 -13 1 -26 -3 -29 -9 -3 -6 -2 -7
2 -3 5 4 15 -3 22 -15 7 -13 12 -17 13 -10 0 8 5 10 13 5 21 -13 37 -12 37 4
0 12 -3 13 -13 4 -10 -8 -14 -7 -14 2 0 20 29 17 34 -3 3 -11 16 -17 36 -18
51 -3 68 -8 76 -21 5 -7 10 -12 12 -10 11 8 49 -11 49 -25 0 -9 6 -13 14 -10
9 3 12 13 9 22 -5 14 -3 15 8 4 18 -17 2 -30 -86 -70 -350 -157 -749 -179
-1105 -62 -108 35 -272 109 -284 128 -2 4 13 7 35 6 21 -1 37 1 35 5 -3 3 13
6 34 6 21 0 36 4 33 9 -4 5 5 6 21 2 16 -4 26 -2 26 4 0 6 -4 9 -8 6 -4 -2
-14 0 -22 6 -12 8 -12 9 2 4 10 -3 22 2 28 12 11 16 11 16 6 0 -3 -10 0 -20 6
-24 6 -4 8 -3 5 2 -3 6 -2 16 3 24 13 21 -18 54 -37 39 -7 -6 -14 -9 -14 -5
-1 3 -2 12 -3 19 -1 6 -7 11 -13 10 -6 -1 -10 5 -8 15 1 9 -3 24 -9 32 -9 13
-9 13 6 2 11 -9 18 -10 23 -2 5 8 11 7 22 -2 14 -11 15 -10 10 12 -4 14 -4 19
-1 11 5 -11 8 -11 15 0 6 10 9 11 9 2 0 -7 7 -13 15 -13 8 0 15 4 15 9 0 5 10
11 23 13 13 2 21 9 19 18 -3 11 1 11 16 -3 25 -23 27 -22 27 11 0 17 -5 29
-13 29 -7 0 -10 -7 -8 -14 3 -8 2 -11 -3 -8 -6 3 -9 14 -8 25 1 14 4 16 14 8
9 -7 13 -7 13 0 0 6 11 9 25 7 14 -1 25 2 25 7 0 5 7 3 15 -6 19 -19 20 -32 1
-17 -11 10 -14 9 -12 -4 1 -8 8 -21 16 -28 8 -7 10 -7 7 -1 -8 13 59 69 67 56
2 -4 27 -7 55 -7 27 1 48 -2 45 -7 -3 -5 -10 -6 -15 -3 -5 4 -9 0 -9 -7 0 -8
-3 -9 -8 -3 -11 17 -50 15 -56 -1 -4 -10 -2 -13 7 -7 18 11 36 12 43 2 3 -6
19 -2 38 9 24 15 38 17 51 9 13 -7 16 -6 10 2 -9 15 26 11 37 -4 4 -5 8 -1 8
10 0 15 3 17 9 7 7 -11 9 -11 14 2 4 9 17 16 29 16 17 0 19 -3 10 -9z m-466
-55 c0 -13 -5 -23 -12 -23 -9 0 -10 5 -5 11 5 6 7 19 5 29 -1 11 0 16 4 12 3
-3 7 -16 8 -29z m901 -10 c0 -8 -6 -12 -15 -9 -11 5 -11 7 0 14 7 5 13 9 14 9
0 0 1 -6 1 -14z m117 -2 c3 -8 2 -12 -4 -9 -6 3 -10 10 -10 16 0 14 7 11 14
-7z m-1120 -20 c3 -8 2 -12 -4 -9 -6 3 -10 10 -10 16 0 14 7 11 14 -7z m1196
-50 c0 -8 4 -13 8 -10 4 2 8 -6 8 -19 0 -14 -2 -22 -5 -20 -2 3 -10 0 -18 -6
-7 -6 -13 -8 -13 -3 0 5 -5 2 -10 -6 -5 -8 -10 -10 -10 -4 0 6 9 19 20 29 15
13 17 22 9 36 -6 13 -6 19 1 19 5 0 10 -7 10 -16z m37 -26 c-3 -8 -6 -5 -6 6
-1 11 2 17 5 13 3 -3 4 -12 1 -19z m-163 -56 c3 -5 -1 -9 -9 -9 -8 0 -12 4 -9
9 3 4 7 8 9 8 2 0 6 -4 9 -8z"/>
<path d="M3851 3944 c0 -11 3 -14 6 -6 3 7 2 16 -1 19 -3 4 -6 -2 -5 -13z"/>
<path d="M4046 3868 l-25 -32 20 -28 c18 -25 23 -27 42 -16 12 7 26 11 30 10
5 -1 5 3 2 9 -4 6 -15 9 -24 6 -10 -2 -18 1 -18 9 0 7 4 11 9 8 4 -3 5 2 2 10
-3 9 -11 13 -17 9 -6 -4 -7 -1 -1 8 9 15 15 39 9 39 -2 0 -15 -14 -29 -32z"/>
<path d="M3746 3852 c-3 -5 8 -6 25 -4 16 2 29 0 29 -4 0 -5 14 -9 30 -10 39
-1 39 12 -1 20 -43 8 -77 8 -83 -2z"/>
<path d="M3670 3832 c-54 -27 -79 -53 -108 -107 -66 -126 -3 -294 127 -340 46
-16 133 -19 166 -5 12 5 -4 6 -40 3 -61 -5 -143 17 -131 35 3 5 -1 9 -9 10 -8
1 -22 3 -30 4 -8 1 -12 5 -9 9 7 12 -44 117 -64 129 -12 8 -12 10 -2 7 10 -3
16 2 16 13 0 10 -3 17 -7 14 -4 -2 -5 5 -2 16 3 11 10 17 16 13 5 -3 7 -1 4 4
-10 16 4 74 16 66 5 -3 7 -1 4 4 -4 6 0 16 8 23 7 6 11 18 8 25 -3 10 1 13 16
10 11 -2 23 1 26 6 4 5 11 6 17 3 7 -4 8 -2 4 5 -4 6 0 14 8 17 9 3 16 10 16
16 0 5 -4 6 -10 3 -5 -3 -10 0 -10 9 0 8 6 17 13 19 6 3 7 6 2 6 -6 1 -26 -7
-45 -17z"/>
<path d="M3870 3836 c0 -2 7 -7 16 -10 8 -3 12 -2 9 4 -6 10 -25 14 -25 6z"/>
<path d="M3877 3809 c7 -7 15 -10 18 -7 3 3 -2 9 -12 12 -14 6 -15 5 -6 -5z"/>
<path d="M3913 3804 c0 -7 4 -11 8 -8 4 2 14 -3 21 -11 7 -9 19 -22 26 -30 7
-8 11 -15 7 -15 -3 0 -1 -6 5 -12 6 -7 17 -22 26 -33 11 -15 11 -11 -2 15 -34
69 -91 129 -91 94z"/>
<path d="M3417 3656 c12 -9 24 -29 26 -44 3 -22 4 -19 6 11 0 20 -3 37 -8 37
-5 0 -18 3 -28 6 -14 5 -13 3 4 -10z"/>
<path d="M4011 3564 c0 -11 3 -14 6 -6 3 7 2 16 -1 19 -3 4 -6 -2 -5 -13z"/>
<path d="M2293 3511 c2 -51 4 -55 31 -62 22 -6 33 -4 42 9 8 9 13 22 13 27 0
6 -3 5 -5 -1 -5 -13 -67 40 -77 66 -3 8 -5 -9 -4 -39z"/>
<path d="M2061 3487 c26 -46 31 -49 63 -37 17 6 26 17 26 30 0 20 -1 20 -16 6
-12 -12 -20 -13 -35 -6 -10 6 -19 8 -19 4 0 -3 -9 4 -20 17 -19 23 -19 22 1
-14z"/>
<path d="M3955 3457 c-16 -18 -41 -41 -55 -50 -17 -13 -14 -12 10 2 19 11 46
34 59 50 31 41 24 39 -14 -2z"/>
<path d="M2152 3376 c-87 -29 -150 -93 -173 -181 -15 -55 2 -146 38 -198 95
-137 306 -140 403 -5 87 120 47 300 -80 365 -58 29 -133 37 -188 19z m83 -116
c3 -5 -1 -10 -10 -10 -9 0 -13 5 -10 10 3 6 8 10 10 10 2 0 7 -4 10 -10z m117
-25 c5 -6 8 -5 8 3 0 6 5 12 10 12 6 0 10 -6 8 -13 -4 -15 37 -69 45 -60 9 8
20 -44 14 -67 -3 -11 -1 -23 4 -26 5 -3 9 -10 9 -15 0 -6 -4 -7 -10 -4 -6 3
-10 -5 -10 -19 0 -14 -5 -28 -11 -32 -7 -4 -9 0 -5 14 4 11 3 23 -1 25 -4 3
-9 -8 -10 -24 -3 -35 -51 -102 -66 -92 -6 4 -3 9 9 14 14 5 15 8 4 8 -9 1 -22
-5 -29 -11 -11 -10 -13 -10 -7 0 8 14 -10 17 -18 3 -4 -5 -23 -5 -48 0 -23 6
-47 8 -54 5 -8 -3 -11 0 -7 10 3 10 -2 17 -14 20 -32 9 -48 52 -45 122 2 53 6
63 19 58 12 -5 14 -1 11 19 -3 13 -1 22 3 19 5 -3 9 -1 9 4 0 6 22 15 50 22
27 7 48 16 45 20 -3 5 7 10 22 12 27 3 50 -6 65 -27z m-118 -294 c4 -5 -4 -7
-16 -4 -19 4 -20 3 -8 -6 9 -7 10 -11 3 -11 -15 0 -25 15 -16 24 9 9 31 7 37
-3z"/>
<path d="M2836 3245 c-10 -8 -23 -12 -27 -9 -5 3 -9 0 -9 -6 0 -7 -7 -9 -16
-6 -9 3 -12 2 -9 -5 4 -6 -1 -17 -11 -24 -11 -8 -15 -15 -11 -15 5 0 34 18 64
40 31 22 52 40 47 40 -5 0 -18 -7 -28 -15z"/>
<path d="M3112 3025 c-120 -26 -221 -108 -275 -223 -29 -62 -32 -75 -32 -167
1 -137 24 -196 114 -286 77 -77 148 -110 255 -117 238 -16 431 170 428 413 -3
192 -138 348 -332 385 -65 12 -79 12 -158 -5z m246 -129 c28 -10 52 -21 52
-26 0 -4 14 -13 30 -19 17 -5 30 -14 30 -19 0 -5 11 -14 24 -21 13 -7 30 -25
37 -40 8 -14 21 -32 29 -39 11 -10 11 -12 1 -6 -11 6 -13 1 -8 -26 4 -18 8
-60 8 -94 2 -58 2 -59 10 -21 6 33 7 30 4 -20 -2 -33 -4 -66 -4 -73 -1 -7 -5
-10 -11 -7 -6 3 -10 -4 -10 -17 -1 -26 -32 -68 -50 -68 -7 0 -10 -6 -7 -14 9
-22 -14 -38 -32 -23 -12 10 -14 9 -8 -5 3 -10 2 -18 -4 -18 -6 0 -7 -4 -4 -10
4 -6 -5 -10 -19 -10 -18 0 -26 -6 -27 -17 0 -11 -3 -13 -6 -5 -2 6 -9 12 -14
12 -6 0 -7 -4 -4 -10 3 -5 1 -10 -5 -10 -6 0 -8 -6 -4 -12 4 -7 4 -10 -1 -6
-4 4 -17 3 -29 -3 -20 -10 -20 -10 -2 5 11 9 15 16 9 16 -6 0 -23 -10 -39 -22
-21 -17 -26 -18 -22 -6 5 12 2 15 -15 10 -12 -2 -27 -9 -34 -14 -7 -6 -14 -4
-19 3 -5 8 -3 9 6 4 9 -6 11 -4 5 5 -6 11 -10 10 -19 -2 -8 -11 -19 -12 -43
-6 -18 5 -33 13 -33 18 0 6 -7 10 -15 10 -8 0 -15 4 -15 10 0 5 -6 7 -14 4
-18 -7 -126 102 -126 127 0 13 -4 18 -12 13 -6 -4 -8 -3 -5 3 3 5 -1 23 -10
39 -18 30 -27 204 -11 204 4 0 8 6 8 14 0 7 11 30 25 50 14 20 25 43 25 51 0
8 6 15 13 15 7 0 33 19 57 42 24 24 40 36 35 28 -8 -13 -6 -13 10 0 10 8 27
14 38 12 10 -2 17 0 14 5 -3 5 9 8 26 8 17 0 50 2 72 5 22 4 45 3 50 -1 6 -3
34 -14 63 -23z"/>
<path d="M3526 2443 c-6 -14 -5 -15 5 -6 7 7 10 15 7 18 -3 3 -9 -2 -12 -12z"/>
<path d="M2489 2429 c6 -15 5 -33 -1 -45 -9 -19 -9 -19 6 0 20 24 20 27 1 52
-14 18 -15 18 -6 -7z"/>
<path d="M2536 2133 c-6 -14 -5 -15 5 -6 7 7 10 15 7 18 -3 3 -9 -2 -12 -12z"/>
<path d="M2600 2015 c5 -7 7 -15 3 -18 -3 -4 0 -14 7 -22 12 -15 14 -15 23 1
7 12 5 19 -7 26 -9 5 -14 13 -12 17 3 4 -1 8 -9 8 -10 0 -12 -4 -5 -12z m25
-25 c3 -5 1 -10 -4 -10 -6 0 -11 5 -11 10 0 6 2 10 4 10 3 0 8 -4 11 -10z"/>
<path d="M2679 1987 c5 -5 7 -17 3 -25 -4 -11 2 -9 18 6 13 12 20 25 17 29 -4
3 -7 1 -7 -5 0 -7 -5 -12 -11 -12 -5 0 -8 4 -5 8 3 5 -2 9 -10 9 -9 0 -11 -4
-5 -10z"/>
<path d="M3795 2991 c-3 -5 -2 -12 3 -15 5 -3 9 1 9 9 0 17 -3 19 -12 6z"/>
<path d="M2669 1892 c-13 -15 -17 -21 -10 -15 11 10 18 10 30 1 9 -7 13 -8 9
-4 -4 5 -3 15 3 22 21 26 -9 22 -32 -4z"/>
<path d="M2586 1897 c3 -10 9 -15 12 -12 3 3 0 11 -7 18 -10 9 -11 8 -5 -6z"/>
<path d="M3453 1854 c0 -9 4 -11 12 -4 14 11 25 3 25 -17 0 -9 -5 -11 -12 -7
-9 5 -9 3 1 -9 17 -21 31 -13 24 13 -8 31 -50 51 -50 24z"/>
<path d="M3521 1824 c-1 -6 7 -18 16 -25 11 -10 14 -10 9 -1 -4 7 -2 12 4 12
6 0 8 5 4 11 -5 8 -9 8 -14 -1 -6 -9 -9 -9 -13 1 -3 8 -6 9 -6 3z"/>
<path d="M2432 1794 c-7 -14 -16 -23 -21 -19 -6 3 -9 -4 -8 -15 1 -11 2 -20 3
-20 6 0 46 72 42 76 -3 2 -10 -7 -16 -22z"/>
<path d="M2390 1795 c-9 -11 -8 -14 9 -12 22 1 28 12 12 21 -5 3 -14 -1 -21
-9z"/>
<path d="M2456 1778 c3 -5 10 -6 15 -3 13 9 11 12 -6 12 -8 0 -12 -4 -9 -9z"/>
<path d="M2435 1761 c-3 -6 1 -13 9 -18 8 -4 16 -15 18 -23 2 -8 7 -18 13 -22
11 -8 35 9 35 26 0 6 -5 4 -10 -4 -7 -11 -10 -11 -10 -2 0 7 -5 10 -11 7 -6
-4 -9 0 -7 11 2 14 -2 18 -16 16 -11 -2 -15 1 -11 7 3 6 4 11 1 11 -3 0 -7 -4
-11 -9z"/>
<path d="M2460 1681 c0 -6 4 -13 10 -16 6 -3 7 1 4 9 -7 18 -14 21 -14 7z"/>
<path d="M2285 1630 c-3 -5 -1 -10 4 -10 6 0 11 5 11 10 0 6 -2 10 -4 10 -3 0
-8 -4 -11 -10z"/>
<path d="M3663 1625 c0 -8 4 -12 9 -9 5 3 6 10 3 15 -9 13 -12 11 -12 -6z"/>
<path d="M3589 1753 c-13 -16 -12 -17 4 -4 16 13 21 21 13 21 -2 0 -10 -8 -17
-17z"/>
</g>
</svg>
